<?xml version="1.0" encoding="utf-8"?>
<!-- Generator: Adobe Illustrator 22.1.0, SVG Export Plug-In . SVG Version: 6.00 Build 0)  -->
<svg version="1.1" id="Layer_1" xmlns="http://www.w3.org/2000/svg" xmlns:xlink="http://www.w3.org/1999/xlink" x="0px" y="0px"
	 viewBox="0 0 99.5 46" style="enable-background:new 0 0 99.5 46;" xml:space="preserve">
<style type="text/css">
	.st0{fill:#FF6868;}
	.st1{fill:#2D3142;}
</style>
<rect class="st0" width="30" height="46"/>
<path class="st1" d="M58.1,1.7c0.2-0.3,0.5-0.5,1-0.5H68c0.2,0,0.4,0.1,0.5,0.3c0.2,0.1,0.3,0.3,0.3,0.5v43.3c0,0.2-0.1,0.4-0.3,0.6
	C68.3,45.9,68.2,46,68,46h-9.1c-0.2,0-0.4-0.1-0.6-0.2c-0.1-0.2-0.2-0.4-0.2-0.6V17.8c0-0.2,0-0.3-0.1-0.3c-0.1,0-0.2,0-0.3,0.1
	l-4.5,7.8c-0.2,0.3-0.3,0.5-0.4,0.5s-0.2-0.2-0.4-0.5l-4.5-7.8c-0.1-0.1-0.2-0.2-0.3-0.2c-0.1,0-0.1,0.1-0.1,0.3v27.5
	c0,0.2-0.1,0.4-0.3,0.6C47.2,45.9,47,46,46.8,46h-9.1c-0.2,0-0.4-0.1-0.6-0.2c-0.1-0.2-0.2-0.4-0.2-0.6V2c0-0.2,0.1-0.4,0.2-0.5
	c0.2-0.2,0.4-0.3,0.6-0.3h9c0.4,0,0.7,0.2,1,0.5l5.1,9.3c0.1,0.2,0.3,0.2,0.4,0L58.1,1.7z M75.7,46c-0.2,0-0.4-0.1-0.6-0.2
	c-0.1-0.2-0.2-0.4-0.2-0.6v-7.8c0-0.2,0.1-0.5,0.3-1l12.9-25.8c0-0.1,0-0.2,0-0.3c0-0.1-0.1-0.1-0.3-0.1H75.7
	c-0.2,0-0.4-0.1-0.6-0.2c-0.1-0.2-0.2-0.4-0.2-0.6V2c0-0.2,0.1-0.4,0.2-0.5c0.2-0.2,0.4-0.3,0.6-0.3h23c0.2,0,0.4,0.1,0.5,0.3
	c0.2,0.1,0.3,0.3,0.3,0.5v7.8c0,0.2-0.1,0.5-0.3,1L86.2,36.5c0,0.1,0,0.2,0,0.3c0,0,0.1,0.1,0.3,0.1h12.3c0.2,0,0.4,0.1,0.5,0.3
	c0.2,0.1,0.3,0.3,0.3,0.5v7.6c0,0.2-0.1,0.4-0.3,0.6c-0.1,0.1-0.3,0.2-0.5,0.2H75.7z"/>
</svg>
